<mxfile host="app.diagrams.net" modified="2024-01-09T18:21:05.455Z" agent="Mozilla/5.0 (Windows NT 10.0; Win64; x64) AppleWebKit/537.36 (KHTML, like Gecko) Chrome/120.0.0.0 Safari/537.36 OPR/106.0.0.0" version="22.1.17" etag="_e3gIsaz-owe7ApWWs0A" type="github">
  <diagram name="PÃ¡gina-1" id="z6z4ML0UvfBxJ3-OP9mm">
    <mxGraphModel>
      <root>
        <mxCell id="0" />
        <mxCell id="1" parent="0" />
      </root>
    </mxGraphModel>
  </diagram>
</mxfile>
